<svg width="84" height="84" viewBox="0 0 84 84" fill="none" xmlns="http://www.w3.org/2000/svg">
<g filter="url(#filter0_d_229_2355)">
<rect x="10" y="10" width="64" height="64" rx="32" fill="#48BFA2" shape-rendering="crispEdges"/>
<path d="M46.1831 32.7332L44.2904 34.6257L49.3741 39.709L51.2668 37.8164C52.2444 36.8389 52.2444 35.2552 51.2668 34.2777L49.726 32.7332C48.7484 31.7556 47.1647 31.7556 46.187 32.7332H46.1831ZM43.4067 35.5094L34.2913 44.628C33.8846 45.0346 33.5874 45.5391 33.4232 46.0904L32.0388 50.7944C31.9411 51.1267 32.031 51.4826 32.2735 51.725C32.5159 51.9674 32.8718 52.0574 33.2003 51.9635L37.9046 50.5793C38.456 50.4151 38.9604 50.1179 39.3671 49.7112L48.4903 40.5927L43.4067 35.5094Z" fill="white"/>
</g>
<defs>
<filter id="filter0_d_229_2355" x="0" y="0" width="84" height="84" filterUnits="userSpaceOnUse" color-interpolation-filters="sRGB">
<feFlood flood-opacity="0" result="BackgroundImageFix"/>
<feColorMatrix in="SourceAlpha" type="matrix" values="0 0 0 0 0 0 0 0 0 0 0 0 0 0 0 0 0 0 127 0" result="hardAlpha"/>
<feOffset/>
<feGaussianBlur stdDeviation="5"/>
<feComposite in2="hardAlpha" operator="out"/>
<feColorMatrix type="matrix" values="0 0 0 0 0 0 0 0 0 0 0 0 0 0 0 0 0 0 0.05 0"/>
<feBlend mode="normal" in2="BackgroundImageFix" result="effect1_dropShadow_229_2355"/>
<feBlend mode="normal" in="SourceGraphic" in2="effect1_dropShadow_229_2355" result="shape"/>
</filter>
</defs>
</svg>
