<svg width="31" height="31" viewBox="0 0 31 31" fill="none" xmlns="http://www.w3.org/2000/svg">
<path fill-rule="evenodd" clip-rule="evenodd" d="M15.2482 26.6844C16.75 26.6844 18.2371 26.3886 19.6247 25.8139C21.0122 25.2392 22.2729 24.3968 23.3348 23.3348C24.3968 22.2729 25.2392 21.0122 25.8139 19.6247C26.3886 18.2371 26.6844 16.75 26.6844 15.2482C26.6844 13.7464 26.3886 12.2593 25.8139 10.8718C25.2392 9.48426 24.3968 8.22354 23.3348 7.1616C22.2729 6.09965 21.0122 5.25726 19.6247 4.68254C18.2371 4.10782 16.75 3.81201 15.2482 3.81201C12.2151 3.81201 9.3063 5.01689 7.1616 7.1616C5.01689 9.3063 3.81201 12.2151 3.81201 15.2482C3.81201 18.2813 5.01689 21.1901 7.1616 23.3348C9.3063 25.4795 12.2151 26.6844 15.2482 26.6844ZM14.9534 19.8735L21.3068 12.2494L19.3551 10.6229L13.8911 17.1784L11.0638 14.3498L9.26708 16.1466L13.0791 19.9586L14.0627 20.9422L14.9534 19.8735Z" fill="#48BFA2"/>
</svg>
