<svg width="20" height="20" viewBox="0 0 20 20" fill="none" xmlns="http://www.w3.org/2000/svg">
<path d="M19 7.02381C18.9817 6.41154 18.8066 5.81421 18.4914 5.28896C18.1763 4.76371 17.7316 4.3281 17.2 4.02381C17.0725 3.15275 16.6354 2.35682 15.9686 1.78194C15.3019 1.20706 14.4503 0.89175 13.57 0.893813C13.2325 0.894787 12.8965 0.938468 12.57 1.02381C11.8817 0.366669 10.9666 0 10.015 0C9.06336 0 8.14831 0.366669 7.46 1.02381C7.13349 0.938468 6.79748 0.894787 6.46 0.893813C5.57623 0.886916 4.71981 1.20004 4.04892 1.77536C3.37802 2.35068 2.93795 3.14933 2.81 4.02381C2.27652 4.32685 1.82987 4.76192 1.51291 5.28725C1.19596 5.81259 1.01934 6.41057 1 7.02381C0.734784 7.02381 0.48043 7.12917 0.292893 7.31671C0.105357 7.50424 0 7.7586 0 8.02381C4.45922e-05 9.77914 0.462128 11.5035 1.33981 13.0237C2.21749 14.5438 3.47985 15.8062 5 16.6838V18.0238C5 18.289 5.10536 18.5434 5.29289 18.7309C5.48043 18.9185 5.73478 19.0238 6 19.0238H14C14.2652 19.0238 14.5196 18.9185 14.7071 18.7309C14.8946 18.5434 15 18.289 15 18.0238V16.6838C16.5202 15.8062 17.7825 14.5438 18.6602 13.0237C19.5379 11.5035 20 9.77914 20 8.02381C20 7.7586 19.8946 7.50424 19.7071 7.31671C19.5196 7.12917 19.2652 7.02381 19 7.02381ZM3 7.02381C3.0254 6.70788 3.14465 6.40674 3.34243 6.15907C3.54022 5.91139 3.80751 5.72848 4.11 5.63381L4.94 5.37381L4.78 4.52381C4.78261 4.30844 4.82762 4.09569 4.91246 3.89772C4.9973 3.69974 5.1203 3.52041 5.27445 3.36998C5.4286 3.21955 5.61087 3.10095 5.81086 3.02096C6.01084 2.94098 6.22463 2.90117 6.44 2.90381C6.7287 2.90295 7.01338 2.97155 7.27 3.10381L8.08 3.55381L8.58 2.78381C8.73637 2.55075 8.9477 2.35976 9.19535 2.22769C9.44299 2.09563 9.71934 2.02655 10 2.02655C10.2807 2.02655 10.557 2.09563 10.8047 2.22769C11.0523 2.35976 11.2636 2.55075 11.42 2.78381L11.92 3.55381L12.73 3.10381C12.9866 2.97155 13.2713 2.90295 13.56 2.90381C13.9925 2.89837 14.4099 3.063 14.7222 3.36225C15.0346 3.66151 15.2169 4.07145 15.23 4.50381L15.07 5.35381L15.89 5.63381C16.1925 5.72848 16.4598 5.91139 16.6576 6.15907C16.8554 6.40674 16.9746 6.70788 17 7.02381H3Z" fill="#404040" fill-opacity="0.32"/>
</svg>
