<svg width="20" height="19" viewBox="0 0 20 19" fill="none" xmlns="http://www.w3.org/2000/svg">
<path d="M18.664 0.0581383L6 4.58014V11.5801L6.748 11.8471L5.621 14.1011C5.49281 14.3574 5.42119 14.6382 5.41098 14.9246C5.40077 15.211 5.45222 15.4962 5.56184 15.7609C5.67145 16.0257 5.83669 16.2638 6.04634 16.4591C6.25599 16.6545 6.50517 16.8025 6.777 16.8931L10.861 18.2541C11.3179 18.4031 11.8129 18.3839 12.2568 18.1999C12.7007 18.016 13.0643 17.6795 13.282 17.2511L14.585 14.6451L18.664 16.1021C18.8148 16.1559 18.9764 16.1727 19.1351 16.1511C19.2937 16.1295 19.4449 16.0701 19.5758 15.9778C19.7068 15.8856 19.8136 15.7633 19.8875 15.6212C19.9613 15.4791 19.9999 15.3213 20 15.1611V0.999139C19.9999 0.838992 19.9613 0.68122 19.8875 0.539097C19.8136 0.396975 19.7068 0.274659 19.5758 0.182439C19.4449 0.0902199 19.2937 0.0307949 19.1351 0.00916402C18.9764 -0.0124669 18.8148 0.00432884 18.664 0.0581383ZM11.493 16.3571L7.41 14.9961L8.645 12.5251L12.687 13.9691L11.493 16.3571ZM2 11.5801H4V4.58014H2C0.897 4.58014 0 5.47714 0 6.58014V9.58014C0 10.6831 0.897 11.5801 2 11.5801Z" fill="#404040" fill-opacity="0.32"/>
</svg>
