<svg width="36" height="36" viewBox="0 0 36 36" fill="none" xmlns="http://www.w3.org/2000/svg">
<path d="M17.7998 0C18.3521 2.41411e-08 18.7998 0.447715 18.7998 1V16.0996H34.5996C35.1517 16.0997 35.5995 16.5475 35.5996 17.0996C35.5996 17.6518 35.1518 18.0995 34.5996 18.0996H18.7998V34.5996C18.7997 35.1518 18.352 35.5996 17.7998 35.5996C17.2476 35.5996 16.7999 35.1518 16.7998 34.5996V18.0996H1C0.447715 18.0996 0 17.6519 0 17.0996C0.000105148 16.5474 0.44778 16.0996 1 16.0996H16.7998V1C16.7998 0.447715 17.2475 -5.1764e-10 17.7998 0Z" fill="white"/>
</svg>
