<svg width="24" height="24" viewBox="0 0 24 24" fill="none" xmlns="http://www.w3.org/2000/svg">
<rect width="24" height="24" fill="white"/>
<path d="M11.4122 13.897H18.8626C19.4295 13.897 19.9731 14.1222 20.374 14.5231C20.7748 14.924 21 15.4678 21 16.0348V16.8947C21 17.4081 20.889 17.9155 20.6747 18.382C20.4605 18.8486 20.1479 19.2633 19.7584 19.5978C18.2708 20.8758 16.1429 21.5 13.3976 21.5H13.2275C13.3709 21.2115 13.4273 20.8876 13.3901 20.5676C13.3528 20.2476 13.2234 19.9454 13.0176 19.6976L12.9121 19.5826L10.7938 17.4695C11.4208 16.3911 11.6409 15.1233 11.4122 13.897ZM6.27295 10.5715C7.08503 10.5715 7.88029 10.8029 8.56566 11.2386C9.25104 11.6742 9.79816 12.2961 10.143 13.0315C10.4878 13.7669 10.6161 14.5853 10.5128 15.3909C10.4095 16.1966 10.079 16.9561 9.55978 17.5807L12.2415 20.2544C12.3681 20.3815 12.4421 20.5518 12.4486 20.7311C12.4552 20.9105 12.3939 21.0857 12.2769 21.2218C12.1599 21.3579 11.9959 21.4448 11.8176 21.4652C11.6394 21.4856 11.46 21.438 11.3153 21.3318L11.2345 21.2634L8.47683 18.5118C7.91218 18.8512 7.27673 19.0555 6.62009 19.1088C5.96345 19.162 5.3034 19.0627 4.69147 18.8187C4.07953 18.5746 3.53227 18.1924 3.09241 17.7018C2.65255 17.2113 2.332 16.6257 2.15578 15.9908C1.97955 15.3559 1.95243 14.6888 2.07652 14.0417C2.20062 13.3946 2.47257 12.7849 2.87115 12.2603C3.26973 11.7356 3.78415 11.3102 4.37425 11.0173C4.96435 10.7243 5.61416 10.5717 6.27295 10.5715ZM6.27295 11.9967C5.51713 11.9967 4.79226 12.297 4.25781 12.8315C3.72336 13.3661 3.42311 14.0911 3.42311 14.8471C3.42311 15.6031 3.72336 16.3281 4.25781 16.8627C4.79226 17.3972 5.51713 17.6975 6.27295 17.6975C7.02878 17.6975 7.75365 17.3972 8.2881 16.8627C8.82255 16.3281 9.1228 15.6031 9.1228 14.8471C9.1228 14.0911 8.82255 13.3661 8.2881 12.8315C7.75365 12.297 7.02878 11.9967 6.27295 11.9967ZM13.3976 2.5C14.0213 2.5 14.6389 2.62288 15.2152 2.86163C15.7915 3.10037 16.3151 3.45031 16.7561 3.89145C17.1972 4.3326 17.5471 4.85631 17.7858 5.43269C18.0245 6.00908 18.1473 6.62684 18.1473 7.25071C18.1473 7.87458 18.0245 8.49235 17.7858 9.06873C17.5471 9.64511 17.1972 10.1688 16.7561 10.61C16.3151 11.0511 15.7915 11.4011 15.2152 11.6398C14.6389 11.8785 14.0213 12.0014 13.3976 12.0014C12.1379 12.0014 10.9297 11.5009 10.039 10.61C9.14824 9.71904 8.64783 8.51068 8.64783 7.25071C8.64783 5.99075 9.14824 4.78238 10.039 3.89145C10.9297 3.00052 12.1379 2.5 13.3976 2.5Z" fill="#C1C1C1"/>
</svg>
